<svg width="550" height="550" viewBox="0 0 550 550" fill="none" xmlns="http://www.w3.org/2000/svg">
<path d="M263.308 90.8213L216.766 115.871V240.298L263.308 265.347V90.8213Z" fill="white"/>
<path d="M277.271 265.347V90L326.141 115.05V240.298L277.271 265.347Z" fill="white"/>
<path d="M156 147.686L199.806 124.723V248.149L268.972 287.186L379.639 225.186L370.417 212.269H444.194L407.306 275.704L398.083 264.223L268.972 340L156 275.704V147.686Z" fill="white"/>
<path d="M364.335 221.11L340.029 234.097V122.986L388.64 148.96V199.465H350.037L364.335 221.11Z" fill="white"/>
<path d="M61.7194 433.136H76.3114V441.52H50.7754V396.272H61.7194V433.136Z" fill="white"/>
<path d="M98.0419 405.36C101.583 405.36 104.741 406.107 107.514 407.6C110.33 409.051 112.527 411.163 114.106 413.936C115.727 416.709 116.538 419.952 116.538 423.664C116.538 427.376 115.727 430.619 114.106 433.392C112.527 436.165 110.33 438.299 107.514 439.792C104.741 441.243 101.583 441.968 98.0419 441.968C94.5006 441.968 91.3219 441.243 88.5059 439.792C85.6899 438.299 83.4712 436.165 81.8499 433.392C80.2712 430.619 79.4819 427.376 79.4819 423.664C79.4819 419.952 80.2712 416.709 81.8499 413.936C83.4712 411.163 85.6899 409.051 88.5059 407.6C91.3219 406.107 94.5006 405.36 98.0419 405.36ZM98.0419 414.832C95.9512 414.832 94.1806 415.6 92.7299 417.136C91.3219 418.629 90.6179 420.805 90.6179 423.664C90.6179 426.523 91.3219 428.699 92.7299 430.192C94.1806 431.685 95.9512 432.432 98.0419 432.432C100.133 432.432 101.882 431.685 103.29 430.192C104.698 428.699 105.402 426.523 105.402 423.664C105.402 420.805 104.698 418.629 103.29 417.136C101.882 415.6 100.133 414.832 98.0419 414.832Z" fill="white"/>
<path d="M144.869 405.424C148.965 405.424 152.208 406.789 154.597 409.52C157.029 412.251 158.245 416.005 158.245 420.784V441.52H147.301V422.064C147.301 419.675 146.661 417.819 145.381 416.496C144.144 415.131 142.48 414.448 140.389 414.448C138.17 414.448 136.4 415.152 135.077 416.56C133.797 417.968 133.157 419.973 133.157 422.576V441.52H122.213V405.808H133.157V412.336C134.181 410.203 135.696 408.517 137.701 407.28C139.749 406.043 142.138 405.424 144.869 405.424Z" fill="white"/>
<path d="M179.031 405.36C181.762 405.36 184.108 405.979 186.071 407.216C188.034 408.453 189.484 410.139 190.423 412.272V405.808H201.303V441.328C201.303 444.656 200.663 447.643 199.383 450.288C198.103 452.976 196.14 455.109 193.495 456.688C190.85 458.267 187.564 459.056 183.639 459.056C178.263 459.056 173.954 457.776 170.711 455.216C167.511 452.699 165.591 449.264 164.951 444.912H175.767C176.108 446.363 176.876 447.493 178.071 448.304C179.308 449.115 180.908 449.52 182.871 449.52C185.132 449.52 186.946 448.859 188.311 447.536C189.719 446.256 190.423 444.187 190.423 441.328V435.056C189.484 437.189 188.034 438.875 186.071 440.112C184.108 441.349 181.762 441.968 179.031 441.968C176.087 441.968 173.442 441.243 171.095 439.792C168.791 438.299 166.956 436.165 165.591 433.392C164.268 430.619 163.607 427.376 163.607 423.664C163.607 419.909 164.268 416.667 165.591 413.936C166.956 411.163 168.791 409.051 171.095 407.6C173.442 406.107 176.087 405.36 179.031 405.36ZM182.551 414.96C180.204 414.96 178.306 415.728 176.855 417.264C175.447 418.8 174.743 420.933 174.743 423.664C174.743 426.395 175.447 428.528 176.855 430.064C178.306 431.6 180.204 432.368 182.551 432.368C184.855 432.368 186.732 431.579 188.183 430C189.676 428.421 190.423 426.309 190.423 423.664C190.423 420.976 189.676 418.864 188.183 417.328C186.732 415.749 184.855 414.96 182.551 414.96Z" fill="white"/>
<path d="M254.162 396.272V404.976H241.874V441.52H230.866V404.976H218.706V396.272H254.162Z" fill="white"/>
<path d="M272.343 405.36C275.074 405.36 277.421 405.979 279.383 407.216C281.346 408.453 282.797 410.139 283.735 412.272V405.808H294.615V441.52H283.735V435.056C282.797 437.189 281.346 438.875 279.383 440.112C277.421 441.349 275.074 441.968 272.343 441.968C269.399 441.968 266.754 441.243 264.407 439.792C262.103 438.299 260.269 436.165 258.903 433.392C257.581 430.619 256.919 427.376 256.919 423.664C256.919 419.909 257.581 416.667 258.903 413.936C260.269 411.163 262.103 409.051 264.407 407.6C266.754 406.107 269.399 405.36 272.343 405.36ZM275.863 414.96C273.517 414.96 271.618 415.728 270.167 417.264C268.759 418.8 268.055 420.933 268.055 423.664C268.055 426.395 268.759 428.528 270.167 430.064C271.618 431.6 273.517 432.368 275.863 432.368C278.167 432.368 280.045 431.579 281.495 430C282.989 428.421 283.735 426.309 283.735 423.664C283.735 420.976 282.989 418.864 281.495 417.328C280.045 415.749 278.167 414.96 275.863 414.96Z" fill="white"/>
<path d="M301.126 395.76C301.126 394.096 301.724 392.731 302.918 391.664C304.113 390.555 305.692 390 307.654 390C309.617 390 311.196 390.555 312.39 391.664C313.585 392.731 314.182 394.096 314.182 395.76C314.182 397.381 313.585 398.747 312.39 399.856C311.196 400.923 309.617 401.456 307.654 401.456C305.692 401.456 304.113 400.923 302.918 399.856C301.724 398.747 301.126 397.381 301.126 395.76ZM313.094 405.808V441.52H302.15V405.808H313.094Z" fill="white"/>
<path d="M331.594 394.16V441.52H320.65V394.16H331.594Z" fill="white"/>
<path d="M362.907 433.136H377.499V441.52H351.963V396.272H362.907V433.136Z" fill="white"/>
<path d="M396.093 405.36C398.824 405.36 401.171 405.979 403.133 407.216C405.096 408.453 406.547 410.139 407.485 412.272V405.808H418.365V441.52H407.485V435.056C406.547 437.189 405.096 438.875 403.133 440.112C401.171 441.349 398.824 441.968 396.093 441.968C393.149 441.968 390.504 441.243 388.157 439.792C385.853 438.299 384.019 436.165 382.653 433.392C381.331 430.619 380.669 427.376 380.669 423.664C380.669 419.909 381.331 416.667 382.653 413.936C384.019 411.163 385.853 409.051 388.157 407.6C390.504 406.107 393.149 405.36 396.093 405.36ZM399.613 414.96C397.267 414.96 395.368 415.728 393.917 417.264C392.509 418.8 391.805 420.933 391.805 423.664C391.805 426.395 392.509 428.528 393.917 430.064C395.368 431.6 397.267 432.368 399.613 432.368C401.917 432.368 403.795 431.579 405.245 430C406.739 428.421 407.485 426.309 407.485 423.664C407.485 420.976 406.739 418.864 405.245 417.328C403.795 415.749 401.917 414.96 399.613 414.96Z" fill="white"/>
<path d="M448.172 405.36C451.116 405.36 453.74 406.107 456.044 407.6C458.391 409.051 460.226 411.163 461.548 413.936C462.914 416.667 463.596 419.909 463.596 423.664C463.596 427.376 462.914 430.619 461.548 433.392C460.226 436.165 458.391 438.299 456.044 439.792C453.74 441.243 451.116 441.968 448.172 441.968C445.442 441.968 443.095 441.349 441.132 440.112C439.17 438.875 437.74 437.189 436.844 435.056V441.52H425.9V394.16H436.844V412.272C437.74 410.139 439.17 408.453 441.132 407.216C443.095 405.979 445.442 405.36 448.172 405.36ZM444.652 414.96C442.348 414.96 440.45 415.749 438.956 417.328C437.506 418.864 436.78 420.976 436.78 423.664C436.78 426.309 437.506 428.421 438.956 430C440.45 431.579 442.348 432.368 444.652 432.368C446.999 432.368 448.876 431.6 450.284 430.064C451.735 428.528 452.46 426.395 452.46 423.664C452.46 420.933 451.735 418.8 450.284 417.264C448.876 415.728 446.999 414.96 444.652 414.96Z" fill="white"/>
<path d="M482.267 405.36C486.79 405.36 490.395 406.491 493.083 408.752C495.814 411.013 497.521 414 498.203 417.712H487.963C487.665 416.261 486.982 415.131 485.915 414.32C484.891 413.467 483.59 413.04 482.011 413.04C480.774 413.04 479.835 413.317 479.195 413.872C478.555 414.384 478.235 415.131 478.235 416.112C478.235 417.221 478.811 418.053 479.963 418.608C481.158 419.163 483.014 419.717 485.531 420.272C488.262 420.912 490.502 421.573 492.251 422.256C494.001 422.896 495.515 423.963 496.795 425.456C498.075 426.949 498.715 428.955 498.715 431.472C498.715 433.52 498.161 435.333 497.051 436.912C495.942 438.491 494.342 439.728 492.251 440.624C490.161 441.52 487.686 441.968 484.827 441.968C480.006 441.968 476.145 440.901 473.243 438.768C470.342 436.635 468.571 433.584 467.931 429.616H478.491C478.662 431.152 479.302 432.325 480.411 433.136C481.563 433.947 483.035 434.352 484.827 434.352C486.065 434.352 487.003 434.075 487.643 433.52C488.283 432.923 488.603 432.155 488.603 431.216C488.603 429.979 488.006 429.104 486.811 428.592C485.659 428.037 483.761 427.461 481.115 426.864C478.47 426.309 476.294 425.712 474.587 425.072C472.881 424.432 471.409 423.408 470.171 422C468.934 420.549 468.315 418.587 468.315 416.112C468.315 412.912 469.531 410.331 471.963 408.368C474.395 406.363 477.83 405.36 482.267 405.36Z" fill="white"/>
</svg>
